# xmcd
#
# Track frame offsets: 
#        150
#        14242
#        28986
#        44684
#        60994
#        81822
#        95514
#        110137
#        123474
#        141247
#        155303
#        165335
#        178709
#        190284
#        200920
#        213817
#        225459
#        238587
#
# Disc length: 3383 seconds
#
# Revision: 2
# Processed by: cddbd v1.5.2PL0 Copyright (c) Steve Scherf et al.
# Submitted via: ExactAudioCopy v1.1
#
DISCID=010d3512
DTITLE=B.B.King - B.B.King - Milestones of a Blues Legend cd 05 - B.B.
DTITLE=King sings Compositions of Duke Ellington and Others (1960)
DYEAR=1960
DGENRE=Blues
TTITLE0=Cottontail
TTITLE1=Solitude
TTITLE2=Jack the Bear
TTITLE3=Sophisticated Lady
TTITLE4=Jeeps Blues
TTITLE5=Take the A Train
TTITLE6=Don't Get Around Much Anymore
TTITLE7=Main Stem
TTITLE8=Mood Indigo
TTITLE9=Eastside Westside
TTITLE10=Jump with You Baby (bonus track)
TTITLE11=Lonely and Blue (bonus track)
TTITLE12=Sixteen Tons (bonus track)
TTITLE13=Talkin' the Blues (bonus track)
TTITLE14=I'm Cracking Up Over You (bonus track)
TTITLE15=Bim Bam (bonus track)
TTITLE16=On My Word of Honor (bonus track)
TTITLE17=Can't We Talk It over (bonus track)
EXTD=
EXTT0=
EXTT1=
EXTT2=
EXTT3=
EXTT4=
EXTT5=
EXTT6=
EXTT7=
EXTT8=
EXTT9=
EXTT10=
EXTT11=
EXTT12=
EXTT13=
EXTT14=
EXTT15=
EXTT16=
EXTT17=
PLAYORDER=
